<svg xmlns="http://www.w3.org/2000/svg" fill="none" viewBox="0 0 500 500">
    <path
        d="M365.235 94.527c-8.213 0-16.922.64-26.085 1.92-46.164 6.438-98.066 28.56-146.129 62.281-48.063 33.72-86.53 74.973-108.322 116.185-21.751 41.129-24.248 77.264-7.078 101.739 17.17 24.475 52.004 34.422 98.086 27.983 46.165-6.438 98.066-28.561 146.129-62.281 48.063-33.721 86.53-74.974 108.322-116.185 21.752-41.129 24.249-77.264 7.079-101.739-13.765-19.626-38.859-29.903-72.002-29.903Z"
        fill="#fff" />
    <path
        d="M149.764 407.36c-12.135 0-23.258-1.383-33.287-4.128-17.459-4.808-30.77-13.579-39.54-26.105-8.792-12.527-12.506-28.025-11.082-46.082 1.382-17.397 7.47-36.424 18.098-56.524s25.26-40.283 43.482-59.991c18.862-20.41 40.757-39.417 65.109-56.483 24.351-17.067 49.672-31.203 75.283-41.975 24.743-10.422 48.702-17.294 71.217-20.43 22.535-3.137 42.491-2.394 59.331 2.228 17.458 4.808 30.769 13.579 39.54 26.106 8.791 12.526 12.506 28.024 11.082 46.082-1.383 17.396-7.471 36.423-18.099 56.524-10.628 20.1-25.259 40.283-43.481 59.991-18.862 20.409-40.758 39.416-65.109 56.482-24.352 17.067-49.673 31.203-75.283 41.976-24.744 10.421-48.703 17.293-71.218 20.43-9.121 1.259-17.809 1.899-26.043 1.899ZM365.232 94.527c-8.213 0-16.922.64-26.085 1.92-46.164 6.438-98.066 28.56-146.129 62.281-48.063 33.72-86.53 74.973-108.322 116.185-21.751 41.129-24.248 77.264-7.078 101.739 17.17 24.475 52.004 34.422 98.086 27.984 46.165-6.439 98.066-28.562 146.129-62.282 48.063-33.721 86.53-74.974 108.322-116.185 21.751-41.129 24.249-77.264 7.079-101.739-13.765-19.626-38.859-29.903-72.002-29.903Z"
        fill="#000" />
    <path d="m397.469 127.711 7.78-28.871 26.518-7.058-7.801 28.871-26.497 7.058Z" fill="#A3B6CD" />
    <path
        d="M397.47 128.124a.411.411 0 0 1-.289-.124.394.394 0 0 1-.103-.392l7.78-28.871a.411.411 0 0 1 .289-.289l26.498-7.058a.393.393 0 0 1 .392.103.396.396 0 0 1 .103.393l-7.78 28.87a.406.406 0 0 1-.289.289l-26.497 7.058c-.042.021-.062.021-.104.021Zm8.111-28.933-7.533 27.942 25.59-6.81 7.532-27.942-25.589 6.81Z"
        fill="#000" />
    <path d="m385.893 79.42-7.78 28.851 19.358 19.44 7.78-28.87-19.358-19.42Z" fill="#BDCCD9" />
    <path
        d="M397.468 128.123a.41.41 0 0 1-.289-.123l-19.357-19.42a.393.393 0 0 1-.103-.392l7.78-28.87a.408.408 0 0 1 .289-.29.393.393 0 0 1 .392.104l19.357 19.419a.392.392 0 0 1 .103.392l-7.78 28.871a.41.41 0 0 1-.289.289c-.041.02-.061.02-.103.02Zm-18.903-19.955 18.697 18.758 7.532-27.942-18.697-18.759-7.532 27.943Z"
        fill="#000" />
    <path d="m431.766 91.782-26.518 7.058-19.357-19.419 26.497-7.058 19.378 19.42Z" fill="#D9E3EC" />
    <path
        d="M405.25 99.253a.405.405 0 0 1-.289-.124l-19.358-19.42c-.103-.103-.144-.247-.103-.391a.409.409 0 0 1 .289-.29l26.498-7.057a.393.393 0 0 1 .392.103l19.357 19.42a.392.392 0 0 1 .103.391.408.408 0 0 1-.289.29l-26.497 7.078h-.103Zm-18.574-19.626 18.697 18.759 25.59-6.81-18.697-18.759-25.59 6.81Z"
        fill="#000" />
    <path d="m401.246 113.719 3.839-14.28 13.104-3.488-3.839 14.28-13.104 3.488Z" fill="#6556FF" />
    <path
        d="M401.244 114.131a.405.405 0 0 1-.289-.124.391.391 0 0 1-.103-.392l3.838-14.26a.41.41 0 0 1 .289-.289l13.104-3.487a.395.395 0 0 1 .393.103.394.394 0 0 1 .103.392l-3.839 14.26a.406.406 0 0 1-.289.289l-13.104 3.488c-.041.02-.062.02-.103.02Zm4.189-14.342-3.591 13.352 12.176-3.24 3.591-13.352-12.176 3.24Z"
        fill="#000" />
    <path d="m395.506 89.842-3.838 14.26 9.575 9.617 3.839-14.281-9.576-9.596Z" fill="#6556FF" />
    <path
        d="M401.245 114.131a.41.41 0 0 1-.289-.123l-9.575-9.597a.391.391 0 0 1-.103-.392l3.838-14.26a.408.408 0 0 1 .289-.289.393.393 0 0 1 .392.104l9.575 9.596a.392.392 0 0 1 .104.392l-3.839 14.26a.41.41 0 0 1-.289.289.19.19 0 0 1-.103.02Zm-9.121-10.132 8.894 8.935 3.591-13.352-8.895-8.935-3.59 13.352Z"
        fill="#000" />
    <path d="m418.188 95.95-13.105 3.488-9.575-9.596 13.104-3.487 9.576 9.596Z" fill="#6556FF" />
    <path
        d="M405.085 99.85a.408.408 0 0 1-.289-.123l-9.575-9.596a.392.392 0 0 1-.104-.392.411.411 0 0 1 .289-.29l13.105-3.487a.393.393 0 0 1 .392.103l9.575 9.596a.392.392 0 0 1 .103.392.408.408 0 0 1-.289.29l-13.104 3.487c-.021.02-.062.02-.103.02Zm-8.771-9.802 8.895 8.936 12.175-3.24-8.894-8.936-12.176 3.24Z"
        fill="#000" />
    <path d="m187.283 425.004-18.181-23.732 10.504-25.342 18.181 23.732-10.504 25.342Z" fill="#A3B6CD" />
    <path
        d="M187.285 425.417a.43.43 0 0 1-.33-.165l-18.181-23.733a.484.484 0 0 1-.062-.412l10.525-25.342a.41.41 0 0 1 .33-.248.378.378 0 0 1 .371.165l18.181 23.732a.483.483 0 0 1 .062.413l-10.524 25.342a.41.41 0 0 1-.331.248h-.041Zm-17.706-24.207 17.603 22.969 10.153-24.455-17.603-22.969-10.153 24.455Z"
        fill="#000" />
    <path d="m141.906 404.842 18.181 23.712 27.199-3.55-18.181-23.732-27.199 3.57Z" fill="#BDCCD9" />
    <path
        d="M160.086 428.966a.43.43 0 0 1-.33-.165l-18.181-23.732a.486.486 0 0 1-.062-.413c.041-.144.186-.227.33-.248l27.199-3.549a.38.38 0 0 1 .372.165l18.181 23.732a.49.49 0 0 1 .062.413c-.042.144-.186.227-.331.248l-27.199 3.549h-.041Zm-17.418-23.815 17.604 22.969 26.25-3.426-17.604-22.968-26.25 3.425Z"
        fill="#000" />
    <path d="m179.606 375.93-10.504 25.342-27.2 3.57 10.504-25.342 27.2-3.57Z" fill="#D9E3EC" />
    <path
        d="M141.905 405.255a.43.43 0 0 1-.33-.165.486.486 0 0 1-.062-.413l10.525-25.342a.407.407 0 0 1 .33-.247l27.199-3.55a.378.378 0 0 1 .371.165.482.482 0 0 1 .062.413l-10.524 25.342a.412.412 0 0 1-.331.248l-27.199 3.549c-.02-.021-.041 0-.041 0Zm10.793-25.383-10.153 24.454 26.25-3.446 10.153-24.455-26.25 3.447Z"
        fill="#000" />
    <path d="M169.098 409.61a8.255 8.255 0 1 0 0-16.51 8.255 8.255 0 0 0 0 16.51Z" fill="#6556FF" />
    <path
        d="M169.101 410.022a8.665 8.665 0 0 1-8.667-8.667 8.665 8.665 0 0 1 8.667-8.667 8.665 8.665 0 0 1 8.667 8.667c0 4.788-3.9 8.667-8.667 8.667Zm0-16.509a7.838 7.838 0 0 0-7.842 7.842 7.838 7.838 0 0 0 7.842 7.842 7.838 7.838 0 0 0 7.842-7.842c0-4.334-3.529-7.842-7.842-7.842Z"
        fill="#000" />
    <path
        d="m198.118 399.414-18.181-23.732a.379.379 0 0 0-.371-.165l-27.2 3.55a.453.453 0 0 0-.33.247l-10.525 25.342a.38.38 0 0 0 .062.413l18.181 23.732a.433.433 0 0 0 .33.165h.062l27.2-3.549a.456.456 0 0 0 .33-.248l10.525-25.342a.583.583 0 0 0-.083-.413Zm-45.421-19.543 26.249-3.425-3.116 7.491-7.037 16.963-26.25 3.447 10.154-24.476Zm-10.03 25.28 26.25-3.446 17.603 22.969-26.25 3.426-17.603-22.949Zm44.493 19.028-16.179-21.112-1.424-1.857 10.153-24.455 17.603 22.969-10.153 24.455Zm240.313-310.666-7.512-5.551.351-.516a64.472 64.472 0 0 1 7.553 5.592l-.392.475Zm-37.808-16.922-10.153-1.445.082-.619c3.488.351 6.934.847 10.195 1.445l-.124.619Z"
        fill="#000" />
    <path
        d="M403.622 148.389c-3.26-1.692-7.367-2.105-11.825-.908l-290.834 77.924c-10.566 2.828-19.15 13.703-19.15 24.29v69.876c0 4.169 1.32 7.656 3.59 10.194 2.25 2.539 12.093 10.525 14.776 12.279 3.405 2.208 7.945 2.889 12.939 1.569l290.834-77.925c10.566-2.827 19.151-13.702 19.151-24.289v-69.876c0-4.664-1.671-8.482-4.416-11.062-2.188-2.043-11.804-10.38-15.065-12.072Z"
        fill="#6556FF" />
    <path
        d="M108.144 344.686c-3.013 0-5.82-.784-8.193-2.311-2.724-1.775-12.527-9.72-14.859-12.341-2.414-2.724-3.694-6.336-3.694-10.484v-69.876c0-10.731 8.73-21.813 19.461-24.681l290.834-77.925c4.437-1.197 8.626-.866 12.113.95 3.323 1.733 13.022 10.153 15.148 12.134 2.93 2.745 4.561 6.769 4.561 11.35v69.876c0 10.732-8.73 21.813-19.461 24.682L113.22 343.984c-1.733.454-3.425.702-5.076.702ZM396.79 147.192c-1.568 0-3.199.227-4.891.681l-290.834 77.925c-10.38 2.786-18.841 13.496-18.841 23.876v69.876c0 3.942 1.197 7.368 3.487 9.927 2.25 2.517 12.073 10.504 14.694 12.196 3.446 2.229 7.904 2.765 12.609 1.507l290.834-77.925c10.38-2.786 18.841-13.496 18.841-23.877v-69.876c0-4.354-1.527-8.172-4.292-10.751-2.023-1.899-11.743-10.339-14.962-11.99-2.002-1.053-4.251-1.569-6.645-1.569Z"
        fill="#000" />
    <path
        d="M85.402 329.745c2.25 2.538 12.094 10.525 14.776 12.279 3.405 2.208 7.946 2.889 12.94 1.568l25.816-6.913-44.967-47.444a6.064 6.064 0 0 1-6.067 6.067 6.064 6.064 0 0 1-6.068-6.067v30.315c-.02 4.169 1.321 7.656 3.57 10.195Z"
        fill="#000" />
    <path
        d="M108.144 344.686c-3.013 0-5.82-.784-8.193-2.311-2.724-1.775-12.527-9.72-14.859-12.341-2.414-2.724-3.694-6.335-3.694-10.483v-30.316a.413.413 0 0 1 .826 0 5.663 5.663 0 0 0 5.654 5.655 5.663 5.663 0 0 0 5.655-5.655c0-.165.103-.33.268-.392a.415.415 0 0 1 .454.104l44.968 47.443a.396.396 0 0 1 .103.393.408.408 0 0 1-.289.288l-25.817 6.914c-1.733.454-3.425.701-5.076.701Zm-25.92-52.293v27.158c0 3.941 1.197 7.367 3.487 9.926 2.25 2.518 12.073 10.504 14.694 12.196 3.446 2.229 7.904 2.766 12.609 1.507l25.156-6.748-43.853-46.268c-.475 3.116-3.157 5.531-6.418 5.531a6.45 6.45 0 0 1-5.675-3.302Z"
        fill="#000" />
    <path
        d="M403.954 265.647 113.12 343.592c-10.566 2.828-19.151-3.446-19.151-14.012v-69.876c0-10.566 8.564-21.442 19.151-24.29l290.834-77.924c10.566-2.827 19.15 3.446 19.15 14.012v69.876c0 10.566-8.564 21.442-19.15 24.269Z"
        fill="#6556FF" />
    <path
        d="M108.123 344.686c-3.405 0-6.5-.991-9.018-2.931-3.57-2.744-5.53-7.078-5.53-12.196v-69.876c0-10.731 8.729-21.813 19.46-24.682l290.834-77.924c5.365-1.445 10.38-.64 14.136 2.229 3.57 2.745 5.53 7.078 5.53 12.196v69.876c0 10.731-8.729 21.813-19.46 24.682L113.22 343.984a19.522 19.522 0 0 1-5.097.702Zm300.822-187.464c-1.568 0-3.219.227-4.891.681L113.22 235.806c-10.38 2.786-18.841 13.497-18.841 23.877v69.876c0 4.85 1.857 8.956 5.221 11.536 3.529 2.724 8.296 3.446 13.414 2.084l290.834-77.924c10.38-2.786 18.841-13.497 18.841-23.877v-69.876c0-4.849-1.857-8.956-5.221-11.536-2.373-1.816-5.303-2.744-8.523-2.744Z"
        fill="#000" />
    <path
        d="m284.057 176.073-.549.617 11.469 10.207.549-.617-11.469-10.207Zm-52.008 14.022-.549.616 11.47 10.208.548-.617-11.469-10.207Zm-119.438 31.969-.549.617 11.47 10.207.549-.617-11.47-10.207Zm4.469-1.305-.549.617 11.47 10.207.549-.616-11.47-10.208Z"
        fill="#000" />
    <path
        d="M139.383 314.742a.553.553 0 0 1-.309-.103.54.54 0 0 1-.207-.413v-52.479c0-.227.165-.434.392-.495l6.625-1.775c.041-.021.082-.021.124-.021.103 0 .206.041.288.083a.544.544 0 0 1 .227.371l.413 4.499c.537-1.754 1.507-3.323 2.869-4.685 1.816-1.816 4.23-3.136 7.161-3.921 1.63-.433 3.157-.66 4.519-.66 2.827 0 5.159.929 6.893 2.786 2.538 2.703 3.838 7.347 3.838 13.785 0 6.191-1.279 11.309-3.776 15.189-2.518 3.9-6.295 6.563-11.206 7.863-1.383.371-2.642.557-3.777.557-1.279 0-2.414-.227-3.363-.702-1.404-.681-2.374-1.795-2.869-3.343v20.967a.526.526 0 0 1-.392.495l-7.326 1.961a.229.229 0 0 1-.124.041Zm18.594-51.633c-.722 0-1.507.124-2.353.351-2.724.722-4.829 2.228-6.232 4.457-1.424 2.25-2.146 5.263-2.146 8.915v2.477c0 3.611.701 6.191 2.084 7.635.908.95 2.064 1.404 3.55 1.404.742 0 1.589-.124 2.497-.372 2.806-.743 4.952-2.332 6.397-4.705 1.465-2.415 2.208-5.655 2.208-9.637 0-4.19-.722-7.161-2.167-8.854-.99-1.114-2.249-1.671-3.838-1.671Z"
        fill="#fff" />
    <path
        d="M161.486 255.679c2.704 0 4.871.867 6.522 2.621 2.455 2.6 3.694 7.079 3.694 13.435 0 6.129-1.239 11.082-3.694 14.899-2.456 3.818-6.109 6.357-10.917 7.657-1.342.351-2.538.536-3.632.536-1.197 0-2.25-.227-3.158-.66-1.712-.826-2.682-2.373-2.909-4.602l-.681.186v22.514l-7.326 1.961v-52.479l6.624-1.775.598 6.48.454-.124c.331-2.394 1.362-4.458 3.117-6.232 1.754-1.755 4.065-3.013 6.913-3.798 1.61-.412 3.054-.619 4.395-.619Zm-8.626 33.205c.805 0 1.672-.124 2.621-.392 2.951-.784 5.18-2.435 6.707-4.932 1.527-2.497 2.27-5.799 2.27-9.906 0-4.334-.763-7.388-2.27-9.204-1.052-1.259-2.456-1.878-4.21-1.878-.763 0-1.589.124-2.497.351-2.868.763-5.056 2.332-6.542 4.684-1.486 2.353-2.228 5.428-2.228 9.184v2.476c0 3.777.742 6.439 2.228 8.007.991 1.094 2.291 1.61 3.921 1.61Zm8.626-34.237c-1.423 0-2.992.227-4.663.681-3.013.805-5.51 2.167-7.388 4.045a12.319 12.319 0 0 0-2.188 2.931l-.227-2.415a.97.97 0 0 0-.433-.743.983.983 0 0 0-.599-.185c-.082 0-.185.02-.268.041l-6.624 1.775a1.033 1.033 0 0 0-.764.99v52.479c0 .331.144.62.413.826.185.144.413.206.619.206.082 0 .186-.02.268-.041l7.326-1.96c.454-.124.764-.537.764-.991v-18.883a5.955 5.955 0 0 0 2.125 1.693c1.032.495 2.25.763 3.591.763 1.176 0 2.477-.186 3.9-.578 5.036-1.341 8.916-4.065 11.516-8.089 2.559-3.963 3.859-9.163 3.859-15.457 0-6.687-1.3-11.309-3.983-14.157-1.816-1.961-4.251-2.931-7.244-2.931Zm-8.626 33.205c-1.341 0-2.373-.413-3.157-1.238-1.28-1.362-1.94-3.797-1.94-7.285v-2.476c0-3.55.702-6.46 2.064-8.647 1.362-2.146 3.302-3.529 5.943-4.251.805-.207 1.548-.331 2.229-.331 1.444 0 2.559.496 3.426 1.507 1.341 1.61 2.043 4.478 2.043 8.523 0 3.88-.723 7.037-2.126 9.369-1.383 2.291-3.384 3.756-6.088 4.478-.908.248-1.692.351-2.394.351Z"
        fill="#000" />
    <path
        d="M177.789 288.575a.554.554 0 0 1-.309-.104.537.537 0 0 1-.207-.412v-6.006c0-.227.166-.433.393-.495l7.759-2.084v-23.506l-6.109 1.631c-.041.02-.082.02-.123.02a.556.556 0 0 1-.31-.103.537.537 0 0 1-.206-.413v-6.005c0-.227.165-.433.392-.495l12.712-3.405c.041-.021.083-.021.124-.021.103 0 .206.021.289.083a.505.505 0 0 1 .227.351l1.114 8.11c.64-6.604 4.128-10.793 10.401-12.485 1.445-.393 2.765-.578 3.921-.578 2.023 0 3.632.598 4.808 1.754 1.817 1.816 2.704 5.159 2.704 10.174a.526.526 0 0 1-.392.495l-7.244 1.94c-.041.021-.082.021-.124.021a.554.554 0 0 1-.309-.104.536.536 0 0 1-.206-.412c0-2.539-.351-4.252-1.074-5.118-.433-.516-1.031-.785-1.857-.785-.433 0-.929.083-1.465.228-2.951.784-5.18 2.662-6.624 5.592-1.486 2.972-2.25 6.934-2.25 11.722v9.059l8.317-2.228c.041-.021.082-.021.124-.021.103 0 .227.041.309.103a.538.538 0 0 1 .206.413v6.005a.526.526 0 0 1-.392.495l-24.434 6.542c-.082.021-.123.042-.165.042Z"
        fill="#fff" />
    <path
        d="M207.795 243.174c1.878 0 3.364.536 4.437 1.61 1.713 1.712 2.559 4.973 2.559 9.802l-7.243 1.94c0-2.662-.392-4.478-1.197-5.448-.537-.64-1.28-.97-2.249-.97-.475 0-1.012.082-1.59.227-3.116.825-5.427 2.786-6.954 5.861-1.527 3.075-2.291 7.057-2.291 11.948v9.741l8.977-2.415v6.006l-8.977 2.414-7.326 1.961-8.151 2.187v-5.984l8.151-2.188v-24.578l-6.769 1.816v-6.006l6.769-1.816 5.448-1.465.475-.124 1.238 9.06.846-.227c.413-6.831 3.777-11.082 10.071-12.774 1.403-.392 2.662-.578 3.776-.578Zm0-1.032c-1.196 0-2.558.206-4.044.599-5.407 1.444-8.833 4.705-10.195 9.678l-.66-4.87a1.057 1.057 0 0 0-.454-.722c-.165-.124-.372-.165-.578-.165-.083 0-.186.02-.268.041l-.475.124-5.448 1.465-6.769 1.816a1.034 1.034 0 0 0-.764.99v6.006c0 .33.145.619.413.825.186.145.413.207.619.207.083 0 .186-.021.269-.042l5.468-1.465v22.453l-7.388 1.981a1.034 1.034 0 0 0-.763.991v6.005c0 .33.144.619.413.825.185.145.412.207.619.207.082 0 .185-.021.268-.042l8.151-2.187 7.326-1.961 8.977-2.414c.454-.124.764-.537.764-.991v-6.005c0-.33-.144-.619-.413-.825a1.01 1.01 0 0 0-.619-.207c-.082 0-.186.021-.268.042l-7.677 2.063v-8.399c0-4.726.743-8.585 2.188-11.495 1.403-2.827 3.467-4.56 6.294-5.324.495-.124.949-.206 1.321-.206.866 0 1.238.33 1.465.598.433.537.949 1.796.949 4.788 0 .33.144.619.413.825.185.145.412.207.619.207.082 0 .186-.021.268-.042l7.244-1.939c.454-.124.763-.537.763-.991 0-5.159-.928-8.605-2.848-10.545-1.279-1.259-3.013-1.899-5.18-1.899Z"
        fill="#000" />
    <path
        d="M232.309 274.046c-2.909 0-5.386-.887-7.305-2.642-2.91-2.641-4.375-7.119-4.375-13.269 0-6.129 1.444-11.33 4.313-15.457 2.869-4.148 6.934-6.934 12.093-8.317 1.796-.474 3.488-.722 5.036-.722 2.909 0 5.365.888 7.284 2.642 2.889 2.641 4.355 7.119 4.355 13.29 0 6.108-1.445 11.309-4.293 15.436-2.848 4.148-6.934 6.955-12.114 8.337-1.795.475-3.487.702-4.994.702Zm7.037-32.42c-.639 0-1.32.103-2.063.288-2.539.682-4.54 2.25-5.923 4.664-1.403 2.456-2.126 5.655-2.126 9.535 0 3.817.702 6.603 2.085 8.275.949 1.135 2.146 1.692 3.652 1.692.62 0 1.321-.103 2.043-.289 2.539-.681 4.541-2.249 5.923-4.664 1.404-2.455 2.126-5.675 2.126-9.513 0-3.839-.702-6.625-2.064-8.276-.949-1.176-2.146-1.712-3.653-1.712Z"
        fill="#fff" />
    <path
        d="M242.05 234.155c2.807 0 5.097.826 6.934 2.497 2.807 2.559 4.189 6.852 4.189 12.919 0 6.026-1.403 11.082-4.189 15.147-2.786 4.066-6.748 6.769-11.825 8.131-1.754.475-3.364.702-4.849.702-2.807 0-5.118-.846-6.955-2.518-2.807-2.559-4.21-6.851-4.21-12.898 0-6.046 1.403-11.102 4.21-15.168 2.807-4.045 6.748-6.769 11.804-8.11 1.775-.475 3.405-.702 4.891-.702Zm-7.078 32.441c.681 0 1.403-.103 2.187-.309 2.683-.722 4.767-2.353 6.233-4.912 1.465-2.559 2.187-5.819 2.187-9.761 0-3.983-.722-6.851-2.187-8.605-1.032-1.239-2.374-1.878-4.045-1.878-.681 0-1.404.103-2.188.309-2.683.722-4.767 2.353-6.232 4.891-1.465 2.538-2.188 5.799-2.188 9.782 0 3.962.723 6.831 2.188 8.605 1.032 1.239 2.394 1.878 4.045 1.878Zm7.078-33.472c-1.568 0-3.302.247-5.159.742-5.283 1.424-9.452 4.293-12.382 8.523-2.91 4.21-4.396 9.514-4.396 15.746 0 6.294 1.527 10.896 4.54 13.641 2.023 1.837 4.602 2.786 7.657 2.786 1.568 0 3.281-.248 5.118-.743 5.303-1.424 9.472-4.292 12.402-8.543 2.91-4.21 4.375-9.514 4.375-15.726 0-6.335-1.527-10.916-4.54-13.661-2.002-1.837-4.561-2.765-7.615-2.765Zm-7.078 32.441c-1.342 0-2.415-.496-3.261-1.507-1.3-1.568-1.96-4.251-1.96-7.945 0-3.777.701-6.893 2.063-9.266 1.342-2.311 3.158-3.756 5.614-4.416.701-.186 1.341-.289 1.919-.289 1.341 0 2.414.495 3.24 1.506 1.3 1.569 1.96 4.231 1.96 7.945 0 3.756-.701 6.872-2.063 9.266-1.342 2.332-3.158 3.777-5.593 4.437-.681.165-1.341.269-1.919.269Z"
        fill="#000" />
    <path
        d="M261.742 266.081a.554.554 0 0 1-.309-.104.536.536 0 0 1-.206-.412v-36.589c0-.227.165-.434.392-.496l6.5-1.733c.042-.021.083-.021.124-.021.103 0 .206.021.289.083a.547.547 0 0 1 .227.371l.289 2.621c.763-2.848 2.91-4.767 6.377-5.716a7.26 7.26 0 0 1 1.919-.268c1.217 0 2.249.392 3.075 1.155.557.516.97 1.197 1.279 2.064.269-1.197.826-2.332 1.672-3.405 1.094-1.404 2.683-2.373 4.705-2.931 1.032-.268 1.981-.412 2.786-.412 1.341 0 2.414.371 3.219 1.093 1.28 1.156 1.899 3.302 1.899 6.522v28.664a.526.526 0 0 1-.392.495l-7.326 1.961c-.042.02-.083.02-.124.02a.558.558 0 0 1-.31-.103.54.54 0 0 1-.206-.412v-27.963c0-2.642-1.052-2.642-1.445-2.642-.206 0-.454.041-.722.103-2.167.578-3.199 2.353-3.199 5.428v26.786a.528.528 0 0 1-.392.496l-6.211 1.671c-.042.021-.083.021-.124.021a.558.558 0 0 1-.31-.103.538.538 0 0 1-.206-.413v-28.665c0-1.96-.929-1.96-1.341-1.96-.269 0-.578.041-.908.144-2.105.558-3.137 2.332-3.137 5.407v26.787a.526.526 0 0 1-.392.495l-7.326 1.961c-.083-.021-.124 0-.166 0Z"
        fill="#fff" />
    <path
        d="M290.863 220.783c1.217 0 2.167.309 2.868.949 1.156 1.053 1.734 3.096 1.734 6.129v28.665l-7.326 1.96v-27.963c0-2.105-.661-3.157-1.961-3.157-.268 0-.557.041-.866.124-2.394.64-3.591 2.621-3.591 5.943v26.787l-6.212 1.671v-28.664c0-1.651-.619-2.477-1.857-2.477-.31 0-.661.062-1.053.165-2.352.62-3.528 2.601-3.528 5.923v26.787l-7.327 1.96v-36.589l6.501-1.733.495 4.416.558-.144c.268-3.571 2.373-5.882 6.273-6.934a7.187 7.187 0 0 1 1.775-.248c1.094 0 2.002.33 2.724 1.011.681.64 1.156 1.61 1.403 2.91l.578-.145c.124-1.465.681-2.847 1.713-4.147 1.032-1.301 2.497-2.229 4.437-2.745.99-.31 1.878-.454 2.662-.454Zm0-1.032c-.867 0-1.857.144-2.93.433-2.147.578-3.818 1.61-4.974 3.096a9.827 9.827 0 0 0-1.362 2.311 5.069 5.069 0 0 0-.825-1.011c-.929-.867-2.085-1.3-3.426-1.3-.64 0-1.321.103-2.043.289-2.146.578-3.818 1.527-4.994 2.827a7.388 7.388 0 0 0-.95 1.321l-.061-.599c-.042-.289-.186-.578-.434-.743a.97.97 0 0 0-.846-.144l-6.501 1.733a1.034 1.034 0 0 0-.763.991v36.589c0 .33.144.619.413.825.185.145.412.207.619.207.082 0 .185-.021.268-.041l7.326-1.961c.454-.124.764-.537.764-.991v-26.786c0-3.756 1.568-4.602 2.765-4.912a2.94 2.94 0 0 1 .784-.123c.351 0 .826 0 .826 1.444v28.665c0 .33.144.619.412.825.186.145.413.206.619.206.083 0 .186-.02.269-.041l6.211-1.671c.454-.124.764-.537.764-.991v-26.786c0-3.756 1.61-4.602 2.827-4.933.227-.062.434-.082.599-.082.247 0 .928 0 .928 2.125v27.963c0 .33.145.619.413.826.186.144.413.206.619.206.083 0 .186-.021.268-.041l7.326-1.961c.454-.124.764-.536.764-.99v-28.665c0-3.364-.681-5.634-2.064-6.892-.949-.805-2.146-1.218-3.611-1.218Z"
        fill="#000" />
    <path
        d="M305.102 270.332a.558.558 0 0 1-.31-.103.54.54 0 0 1-.206-.413v-52.479c0-.227.165-.434.392-.496l6.624-1.774c.042-.021.083-.021.124-.021.103 0 .207.041.289.083a.544.544 0 0 1 .227.371l.413 4.499c.536-1.754 1.506-3.323 2.868-4.685 1.816-1.816 4.231-3.137 7.161-3.921 1.631-.433 3.158-.66 4.52-.66 2.827 0 5.159.929 6.893 2.786 2.538 2.703 3.838 7.326 3.838 13.785 0 6.191-1.28 11.309-3.777 15.189-2.517 3.9-6.294 6.562-11.205 7.862-1.383.372-2.642.558-3.777.558-1.279 0-2.414-.227-3.364-.702-1.403-.681-2.373-1.795-2.868-3.343v20.967a.526.526 0 0 1-.392.495l-7.326 1.961c-.021.041-.083.041-.124.041Zm18.594-51.613c-.723 0-1.507.124-2.353.351-2.724.722-4.829 2.229-6.232 4.458-1.424 2.249-2.147 5.262-2.147 8.915v2.476c0 3.612.702 6.191 2.085 7.636.908.949 2.063 1.403 3.549 1.403.743 0 1.589-.124 2.497-.371 2.807-.743 4.953-2.332 6.398-4.706 1.465-2.414 2.208-5.654 2.208-9.637 0-4.189-.722-7.161-2.167-8.853-.991-1.114-2.249-1.672-3.838-1.672Z"
        fill="#fff" />
    <path
        d="M327.205 211.269c2.704 0 4.871.867 6.521 2.621 2.456 2.6 3.694 7.078 3.694 13.435 0 6.129-1.238 11.081-3.694 14.899-2.455 3.818-6.108 6.356-10.916 7.657-1.342.35-2.539.536-3.632.536-1.197 0-2.25-.227-3.158-.66-1.713-.826-2.683-2.374-2.91-4.602l-.681.185v22.515l-7.326 1.961v-52.48l6.625-1.774.598 6.48.454-.124c.33-2.394 1.362-4.458 3.116-6.233 1.754-1.754 4.066-3.013 6.914-3.797 1.609-.412 3.054-.619 4.395-.619Zm-8.647 33.225c.805 0 1.672-.123 2.621-.392 2.951-.784 5.18-2.435 6.707-4.932 1.527-2.497 2.27-5.799 2.27-9.906 0-4.333-.763-7.388-2.27-9.204-1.052-1.258-2.456-1.878-4.21-1.878-.763 0-1.589.124-2.497.351-2.868.764-5.056 2.332-6.542 4.685-1.485 2.352-2.228 5.427-2.228 9.183v2.477c0 3.776.743 6.438 2.228 8.007 1.012 1.073 2.312 1.609 3.921 1.609Zm8.647-34.257c-1.424 0-2.992.227-4.664.681-3.013.805-5.51 2.167-7.388 4.045a12.341 12.341 0 0 0-2.187 2.931l-.227-2.415a.967.967 0 0 0-.434-.743.98.98 0 0 0-.866-.144l-6.625 1.774a1.034 1.034 0 0 0-.763.991v52.479c0 .33.144.619.413.826.185.144.412.206.619.206.082 0 .185-.021.268-.041l7.326-1.961c.454-.123.764-.536.764-.99v-18.862a5.955 5.955 0 0 0 2.125 1.692c1.032.495 2.25.764 3.591.764 1.176 0 2.476-.186 3.9-.578 5.036-1.342 8.915-4.066 11.516-8.09 2.559-3.962 3.859-9.163 3.859-15.457 0-6.686-1.3-11.309-3.983-14.157-1.816-1.96-4.251-2.951-7.244-2.951Zm-8.647 33.225c-1.341 0-2.373-.412-3.157-1.238-1.279-1.362-1.94-3.797-1.94-7.285v-2.476c0-3.549.702-6.459 2.064-8.647 1.362-2.146 3.302-3.529 5.943-4.251.805-.206 1.548-.33 2.229-.33 1.445 0 2.559.495 3.405 1.506 1.341 1.61 2.043 4.479 2.043 8.523 0 3.88-.722 7.038-2.125 9.369-1.383 2.291-3.385 3.756-6.088 4.479-.867.227-1.651.35-2.374.35Z"
        fill="#000" />
    <path
        d="M361.21 239.335c-2.229 0-4.066-.454-5.448-1.383-2.621-1.733-3.942-5.262-3.942-10.483v-16.097l-8.544 2.291c-.041.02-.082.02-.123.02a.556.556 0 0 1-.31-.103.538.538 0 0 1-.206-.413v-6.026c0-.227.165-.433.392-.495l8.791-2.353v-10.648c0-.227.165-.434.392-.495l7.326-1.961c.042-.021.083-.021.124-.021a.56.56 0 0 1 .31.104.54.54 0 0 1 .206.412v10.381l15.993-4.293c.042-.02.083-.02.124-.02.103 0 .227.041.31.103a.537.537 0 0 1 .206.413v6.005a.526.526 0 0 1-.392.495l-16.262 4.354v16.035c0 2.704.64 4.499 1.899 5.324.64.434 1.527.64 2.641.64 1.094 0 2.415-.206 3.921-.619a47.768 47.768 0 0 0 3.612-1.156c1.259-.454 2.745-1.031 4.416-1.671a.593.593 0 0 1 .186-.041c.082 0 .186.02.268.062a.508.508 0 0 1 .248.371l.825 6.191a.527.527 0 0 1-.309.537 84.66 84.66 0 0 1-4.747 1.898 57.924 57.924 0 0 1-4.932 1.527c-2.641.743-5.015 1.115-6.975 1.115Z"
        fill="#fff" />
    <path
        d="M359.643 191.685v11.04l16.633-4.457v6.005l-16.633 4.458v16.447c0 2.91.701 4.809 2.125 5.758.723.474 1.713.722 2.931.722 1.135 0 2.497-.206 4.065-.619a41.54 41.54 0 0 0 3.653-1.176 183.27 183.27 0 0 0 4.416-1.693l.826 6.191c-1.61.702-3.178 1.342-4.705 1.878a54.651 54.651 0 0 1-4.891 1.507c-2.642.702-4.933 1.052-6.872 1.052-2.147 0-3.86-.433-5.16-1.279-2.476-1.63-3.714-4.994-3.714-10.05v-16.778l-9.184 2.456v-6.005l9.184-2.456v-11.041l7.326-1.96Zm0-1.032c-.083 0-.186.02-.268.041l-7.327 1.961a1.032 1.032 0 0 0-.763.99v10.257l-8.42 2.249a1.034 1.034 0 0 0-.763.991v6.005c0 .33.144.619.412.825.186.145.413.207.619.207.083 0 .186-.021.269-.042l7.883-2.104v15.436c0 5.407 1.403 9.08 4.169 10.917 1.465.97 3.384 1.465 5.737 1.465 2.022 0 4.416-.372 7.14-1.094a67.206 67.206 0 0 0 4.973-1.548 72.307 72.307 0 0 0 4.788-1.919c.413-.186.66-.619.599-1.073l-.826-6.191a1 1 0 0 0-.495-.743.981.981 0 0 0-.516-.144c-.124 0-.248.02-.372.062-1.651.639-3.136 1.217-4.395 1.671-1.259.454-2.456.846-3.57 1.135-1.466.392-2.745.599-3.798.599-1.011 0-1.816-.186-2.373-.558-1.094-.722-1.651-2.373-1.651-4.89v-15.664l15.87-4.251c.454-.124.764-.537.764-.991v-5.984c0-.33-.145-.619-.413-.826a1.018 1.018 0 0 0-.619-.206c-.083 0-.186.021-.269.041l-15.333 4.107v-9.699c0-.331-.144-.619-.412-.826a1.035 1.035 0 0 0-.64-.206Z"
        fill="#000" />
    <path
        d="M439.467 204.975v-25.486c0-.248-.02-.496 0-.743.021-.269-.103-.578.186-.805.309-.227.495.041.681.144 4.643 2.642 9.286 5.304 13.93 7.945a17885.24 17885.24 0 0 1 26.105 14.941c.227.124.702.145.537.558-.124.309-.537.288-.826.371-5.303 1.424-10.607 2.827-15.89 4.251-1.259.33-1.3.434-.764 1.445 3.137 5.861 6.253 11.742 9.37 17.624.433.804.412.866-.496 1.547-3.198 2.353-6.377 4.705-9.575 7.037-.908.661-.991.64-1.424-.144-3.137-5.902-6.274-11.784-9.411-17.686-.041-.082-.082-.165-.144-.268-.392-.66-.495-.64-1.052.165-2.229 3.261-4.437 6.521-6.666 9.782-1.28 1.878-2.559 3.756-3.839 5.613-.165.227-.288.661-.598.599-.268-.042-.144-.454-.144-.723V210.32c.02-1.734.02-3.529.02-5.345Z"
        fill="#E6EAEC" />
    <path
        d="M461.875 234.816c-.062 0-.124 0-.186-.021-.412-.103-.639-.495-.825-.867-2.538-4.787-5.097-9.575-7.636-14.363l-1.795-3.384c-.041-.062-.062-.124-.103-.186 0-.021-.021-.021-.021-.041-.041.062-.103.144-.165.247-1.424 2.085-2.827 4.148-4.251 6.233l-2.992 4.395c-1.074 1.569-2.167 3.178-3.261 4.767-.021.042-.062.104-.083.145-.123.227-.412.784-1.031.681-.681-.124-.599-.846-.578-1.073v-52.768c-.021-.248-.042-.702.392-1.032.536-.413 1.011-.062 1.176.062.021.02.041.041.083.062 4.643 2.641 9.328 5.324 13.95 7.945 8.317 4.767 17.252 9.864 26.106 14.941.02 0 .082.02.123.041.207.062.496.186.64.495a.793.793 0 0 1 0 .661c-.185.516-.701.598-1.011.66-.062.021-.124.021-.186.041l-9.534 2.539c-2.125.557-4.251 1.135-6.377 1.692-.165.041-.495.144-.681.206.062.145.186.392.248.495 3.137 5.861 6.253 11.743 9.369 17.624.599 1.115.392 1.445-.66 2.208-3.199 2.353-6.377 4.706-9.576 7.038-.413.309-.763.557-1.135.557Zm-10.545-20.059h.02c.454.02.681.433.867.722.042.083.083.145.124.227l1.795 3.385c2.539 4.787 5.098 9.575 7.636 14.363.041.062.103.206.165.309.145-.082.392-.268.495-.33 3.199-2.352 6.377-4.684 9.576-7.037.186-.124.474-.351.557-.454-.021-.103-.144-.33-.206-.433-3.116-5.882-6.253-11.743-9.369-17.624-.269-.516-.516-.97-.331-1.404.207-.454.723-.598 1.404-.784 2.125-.578 4.251-1.135 6.376-1.692l9.535-2.538c.041 0 .062-.021.103-.021-8.833-5.056-17.727-10.153-26.023-14.9-4.602-2.641-9.307-5.303-13.93-7.945a.429.429 0 0 1-.103-.062v.31c-.021.144 0 .309 0 .475v51.468a418.022 418.022 0 0 0 3.054-4.479l2.992-4.395c1.424-2.085 2.828-4.148 4.252-6.233.268-.495.557-.928 1.011-.928Z"
        fill="#000" />
    <path
        d="m157.691 154.126-31.781 8.523c-1.898.516-3.426 2.456-3.426 4.334v21.668c0 1.899 1.528 3.013 3.426 2.497l4.437-1.197v8.977l8.977-11.391 18.367-4.912c1.898-.516 3.425-2.456 3.425-4.333v-21.669c0-1.878-1.547-2.992-3.425-2.497Z"
        fill="#6556FF" />
    <path
        d="M130.346 199.485c-.062 0-.124 0-.165-.02a.516.516 0 0 1-.351-.496v-8.316l-3.776 1.011c-1.094.289-2.126.124-2.91-.475-.743-.578-1.156-1.465-1.156-2.538v-21.669c0-2.146 1.672-4.271 3.797-4.849l31.781-8.523c1.094-.289 2.126-.124 2.91.474.743.578 1.155 1.466 1.155 2.539v21.668c0 2.147-1.671 4.272-3.797 4.85l-18.201 4.87-8.874 11.247a.529.529 0 0 1-.413.227Zm0-10.029c.103 0 .227.041.31.103a.538.538 0 0 1 .206.413v7.491l8.069-10.215a.623.623 0 0 1 .268-.186l18.367-4.912c1.672-.454 3.034-2.166 3.034-3.838v-21.669c0-.722-.269-1.341-.764-1.712-.516-.393-1.238-.496-2.022-.289l-31.781 8.523c-1.671.454-3.034 2.166-3.034 3.838v21.669c0 .722.269 1.341.764 1.712.516.393 1.238.496 2.022.289l4.437-1.197c.042 0 .083-.02.124-.02Z"
        fill="#000" />
    <path
        d="m141.077 137.926 2.724-14.611-6.872 1.837-2.724 14.611-20.843 5.592 2.703-14.631-6.851 1.857-2.724 14.611-14.776 3.962v6.728l13.455-3.611-4.148 22.349-14.755 3.942v6.748l13.434-3.611-2.29 12.382 6.851-1.858 2.311-12.361 9.163-2.456v-6.748l-7.842 2.125 4.148-22.349 20.843-5.593-1.465 7.925 6.872-1.837 1.465-7.924 13.043-3.488v-6.748l-11.722 3.157Z"
        fill="#6556FF" />
    <path
        d="M97.41 196.597a.485.485 0 0 1-.35-.145.567.567 0 0 1-.166-.475l2.146-11.556-12.65 3.384a.572.572 0 0 1-.454-.082.54.54 0 0 1-.206-.413v-6.728c0-.227.165-.433.392-.495l14.445-3.88 3.942-21.214-12.67 3.405a.572.572 0 0 1-.455-.083.506.506 0 0 1-.206-.412v-6.728c0-.227.165-.433.392-.495l14.466-3.88 2.662-14.301a.578.578 0 0 1 .372-.413l6.872-1.837a.504.504 0 0 1 .475.124.571.571 0 0 1 .165.475l-2.559 13.806 19.749-5.283 2.662-14.301a.576.576 0 0 1 .372-.413l6.872-1.837a.502.502 0 0 1 .474.124.565.565 0 0 1 .165.475l-2.559 13.806 10.938-2.931c.165-.041.33 0 .454.083a.536.536 0 0 1 .206.412v6.728a.526.526 0 0 1-.392.495l-12.733 3.405-1.403 7.595a.575.575 0 0 1-.371.412l-6.872 1.837a.504.504 0 0 1-.475-.124.563.563 0 0 1-.165-.474l1.321-7.12-19.75 5.283-3.941 21.215 7.057-1.899a.572.572 0 0 1 .454.083.537.537 0 0 1 .207.412v6.728a.526.526 0 0 1-.392.495l-8.854 2.373-2.249 12.052a.576.576 0 0 1-.371.413l-6.873 1.837c-.061.041-.103.062-.144.062Zm2.29-13.414c.125 0 .248.041.352.144a.571.571 0 0 1 .165.475l-2.147 11.556 5.758-1.547 2.249-12.052a.578.578 0 0 1 .372-.413l8.791-2.353v-5.675l-7.202 1.94a.504.504 0 0 1-.475-.124.57.57 0 0 1-.165-.474l4.148-22.329a.578.578 0 0 1 .372-.413l20.843-5.593a.502.502 0 0 1 .474.124.569.569 0 0 1 .166.475l-1.321 7.12 5.757-1.548 1.404-7.595a.577.577 0 0 1 .371-.412l12.671-3.385v-5.675l-11.082 2.993a.502.502 0 0 1-.474-.124.565.565 0 0 1-.165-.475l2.558-13.806-5.757 1.548-2.662 14.301a.578.578 0 0 1-.372.413l-20.843 5.592a.504.504 0 0 1-.475-.123.571.571 0 0 1-.165-.475l2.559-13.806-5.757 1.548-2.662 14.301a.578.578 0 0 1-.372.413l-14.404 3.859v5.675l12.815-3.426a.504.504 0 0 1 .475.124.571.571 0 0 1 .165.475l-4.148 22.329a.576.576 0 0 1-.372.412l-14.383 3.859v5.676l12.794-3.426c.062-.083.103-.103.145-.103Zm-63.334 72.249-.206-.805 5.49-1.465c1.98-.537 3.57-2.559 3.57-4.52v-34.587c0-.887-.33-1.609-.929-2.084-.64-.495-1.506-.619-2.435-.372l-5.49 1.466-.206-.805 5.49-1.465c1.197-.31 2.31-.145 3.157.516.805.619 1.259 1.589 1.259 2.724v34.587c0 2.311-1.878 4.705-4.19 5.324l-5.51 1.486Z"
        fill="#000" />
    <path
        d="M48.523 252.027c-.763 0-1.465-.227-2.022-.661-.805-.619-1.259-1.589-1.259-2.724v-34.587c0-2.311 1.878-4.705 4.19-5.324l5.489-1.465.206.804-5.49 1.466c-1.98.536-3.57 2.559-3.57 4.519v34.587c0 .888.33 1.61.93 2.085.64.495 1.506.619 2.434.371l5.49-1.465.206.805-5.49 1.465a5.157 5.157 0 0 1-1.114.124Z"
        fill="#000" />
    <path
        d="M252.971 293.197c-1.734-1.754-8.833-7.099-10.525-8.214-5.056-3.302-11.804-4.333-19.213-2.352-15.704 4.21-28.417 20.347-28.417 36.031 0 1.012.062 1.569.165 2.518l63.603-17.046c-.764-4.581-2.745-8.007-5.613-10.937Z"
        fill="#6556FF" />
    <path
        d="M254.827 284.983c-5.056-3.302-11.804-4.333-19.213-2.352-15.704 4.21-28.417 20.347-28.417 36.031 0 5.036 1.3 9.39 3.591 12.878 1.011 1.548.722 3.921-.784 5.778l-6.521 8.11c-.496.619-.578 1.3-.351 1.775.227.475 7.037 5.407 7.491 5.861.268.268.681.392 1.218.268l31.058-8.316c15.705-4.21 28.417-20.348 28.417-36.032 0-6.542-2.229-11.99-5.944-15.808-1.733-1.733-8.853-7.078-10.545-8.193Z"
        fill="#96AEBB" />
    <path
        d="M211.407 353.931c-.454 0-.867-.165-1.156-.475-.145-.144-1.403-1.094-2.497-1.919-4.231-3.178-4.953-3.777-5.097-4.107-.331-.702-.166-1.589.412-2.311l6.522-8.11c1.341-1.672 1.65-3.798.763-5.18-2.414-3.653-3.673-8.214-3.673-13.167 0-15.89 12.918-32.275 28.809-36.527 7.284-1.96 14.239-1.093 19.625 2.415 1.734 1.135 8.833 6.459 10.608 8.275 3.982 4.066 6.108 9.658 6.108 16.159 0 15.89-12.919 32.276-28.809 36.527l-31.058 8.316a1.33 1.33 0 0 1-.557.104Zm-7.822-6.934c.372.412 3.137 2.497 4.788 3.735 1.589 1.197 2.414 1.816 2.621 2.002.206.206.495.185.701.124l31.059-8.317c15.457-4.148 28.045-20.08 28.045-35.537 0-6.211-2.002-11.556-5.799-15.436-1.692-1.733-8.77-7.058-10.442-8.131-5.139-3.343-11.804-4.148-18.8-2.27-15.457 4.148-28.045 20.08-28.045 35.537 0 4.746 1.217 9.101 3.508 12.588 1.135 1.734.805 4.375-.805 6.377l-6.521 8.11c-.392.475-.413.949-.31 1.218Z"
        fill="#000" />
    <path
        d="M225.007 348.173c4.911-6.047-8.399-23.939-8.399-23.939s.185 10.67-2.559 10.463c-.826-.062-1.837-1.011-2.869-2.311.496 1.486.083 3.405-1.176 4.973l-6.521 8.111c-.496.619-.578 1.3-.351 1.774.227.475 7.037 5.407 7.491 5.861.268.268.681.392 1.218.268l10.834-2.909c.908-.743 1.713-1.507 2.332-2.291Z"
        fill="#000" />
    <path
        d="M211.407 353.931c-.454 0-.867-.165-1.156-.475-.145-.144-1.403-1.093-2.497-1.919-4.231-3.178-4.953-3.776-5.097-4.106-.331-.702-.166-1.59.412-2.312l6.522-8.11c1.135-1.403 1.547-3.116 1.093-4.478a.507.507 0 0 1 .248-.619.536.536 0 0 1 .66.123c1.424 1.796 2.188 2.105 2.518 2.126.103 0 .248 0 .433-.186 1.404-1.32 1.61-7.491 1.569-9.74 0-.227.144-.434.351-.495a.489.489 0 0 1 .577.185c.558.743 13.476 18.284 8.379 24.579-.64.784-1.445 1.568-2.415 2.352-.062.041-.123.083-.185.103l-10.835 2.91a2.918 2.918 0 0 1-.577.062Zm-7.822-6.934c.372.413 3.137 2.497 4.788 3.735 1.589 1.197 2.414 1.816 2.621 2.002.206.207.495.186.701.124l10.732-2.869c.866-.701 1.609-1.423 2.187-2.125 1.857-2.311 1.032-7.037-2.414-13.662-1.796-3.467-3.901-6.645-5.077-8.337-.062 2.621-.372 7.471-1.878 8.895-.351.33-.784.495-1.218.474-.619-.041-1.32-.454-2.125-1.238-.062 1.259-.578 2.58-1.486 3.694l-6.521 8.11c-.392.454-.413.929-.31 1.197Z"
        fill="#000" />
    <path
        d="M242.878 288.182c-15.704 4.21-28.417 20.348-28.417 36.032 0 5.036 1.301 9.39 3.591 12.878 1.011 1.547.722 3.921-.784 5.778l-6.521 8.11c-.991 1.238-.31 2.724 1.073 2.353l31.058-8.317c15.705-4.21 28.417-20.348 28.417-36.032.021-15.663-12.733-24.991-28.417-20.802Z"
        fill="#E6EAEC" />
    <path
        d="M211.427 353.931c-.578 0-1.073-.247-1.362-.722-.475-.722-.351-1.733.289-2.538l6.521-8.111c1.342-1.671 1.651-3.797.764-5.179-2.415-3.653-3.674-8.214-3.674-13.167 0-15.89 12.919-32.276 28.809-36.527 7.925-2.125 15.354-.949 20.885 3.302 5.283 4.045 8.193 10.442 8.193 18.016 0 15.89-12.919 32.276-28.809 36.527l-31.059 8.317a1.91 1.91 0 0 1-.557.082Zm31.595-65.233c-15.457 4.148-28.045 20.08-28.045 35.537 0 4.746 1.217 9.101 3.508 12.588 1.135 1.734.805 4.375-.805 6.377l-6.521 8.11c-.413.516-.413 1.053-.248 1.321.145.227.434.31.784.207l31.059-8.317c15.457-4.148 28.045-20.08 28.045-35.537 0-7.243-2.765-13.331-7.78-17.19-5.283-4.045-12.382-5.139-19.997-3.096Z"
        fill="#000" />
    <path
        d="M236.142 322.807c1.516-1.733 1.674-4.074.353-5.23-1.321-1.156-3.621-.688-5.137 1.045-1.516 1.732-1.674 4.074-.353 5.23 1.321 1.155 3.621.688 5.137-1.045Z"
        fill="#6556FF" />
    <path
        d="M232.787 324.874c-.722 0-1.383-.206-1.919-.619-.764-.578-1.177-1.506-1.177-2.579 0-2.188 1.775-4.437 3.942-5.015 1.114-.31 2.188-.124 2.972.475.763.577 1.176 1.506 1.176 2.579 0 2.188-1.775 4.437-3.942 5.015-.35.103-.701.144-1.052.144Zm1.898-7.532c-.268 0-.557.041-.846.124-1.836.495-3.343 2.373-3.343 4.21 0 .825.31 1.506.867 1.919.578.454 1.383.578 2.249.33 1.837-.495 3.323-2.373 3.323-4.21 0-.825-.31-1.506-.867-1.919-.351-.289-.825-.454-1.383-.454Z"
        fill="#000" />
    <path
        d="M247.978 319.625c1.516-1.733 1.674-4.074.353-5.23-1.321-1.156-3.621-.688-5.137 1.044-1.516 1.733-1.674 4.075-.353 5.23 1.321 1.156 3.621.689 5.137-1.044Z"
        fill="#6556FF" />
    <path
        d="M244.631 321.717c-.723 0-1.383-.207-1.92-.619-.763-.578-1.176-1.507-1.176-2.58 0-2.188 1.775-4.437 3.942-5.015 1.114-.309 2.187-.124 2.971.475.764.578 1.177 1.506 1.177 2.579 0 2.188-1.775 4.437-3.942 5.015a4.595 4.595 0 0 1-1.052.145Zm1.898-7.553a3.13 3.13 0 0 0-.846.123c-1.837.496-3.322 2.374-3.322 4.21 0 .826.309 1.507.866 1.92.578.454 1.383.577 2.25.33 1.836-.496 3.343-2.374 3.343-4.21 0-.826-.31-1.507-.867-1.919a2.39 2.39 0 0 0-1.424-.454Z"
        fill="#000" />
    <path
        d="M259.821 316.446c1.517-1.732 1.675-4.074.354-5.23-1.321-1.155-3.621-.688-5.137 1.045-1.516 1.732-1.674 4.074-.353 5.23 1.321 1.156 3.62.688 5.136-1.045Z"
        fill="#6556FF" />
    <path
        d="M256.482 318.539c-.722 0-1.382-.206-1.919-.619-.764-.578-1.176-1.507-1.176-2.58 0-2.187 1.774-4.437 3.941-5.015 1.115-.309 2.188-.123 2.972.475.764.578 1.176 1.507 1.176 2.58 0 2.187-1.774 4.437-3.941 5.014a3.883 3.883 0 0 1-1.053.145Zm1.899-7.533c-.268 0-.557.042-.846.124-1.837.496-3.343 2.374-3.343 4.21 0 .826.309 1.507.866 1.919.578.454 1.383.578 2.25.331 1.836-.496 3.343-2.374 3.343-4.21 0-.826-.31-1.507-.867-1.92-.371-.309-.867-.454-1.403-.454Z"
        fill="#000" />
    <path
        d="M311.515 184.565c4.808-.991 9.678-2.93 14.28-5.716l-23.959 6.418c3.137.206 6.397-.042 9.679-.702Zm29.469-3.199c.248.186.495.372.763.516l.124.062 7.223 5.964c1.259 1.053 2.992 1.342 4.747.97 1.754-.371 3.57-1.383 4.973-2.992 2.848-3.199 3.096-7.491.557-9.576l-5.923-4.891-20.12 5.387 7.656 4.56Z"
        fill="#6556FF" />
    <path
        d="m373.654 165.146-9.74-10.587c10.462-15.993 3.178-38.137-8.688-47.939-13.435-11.082-36.61-6.315-51.696 10.669-15.085 16.984-16.406 39.808-2.971 50.89 6.707 5.552 15.869 7.12 25.238 5.201 7.182-1.486 16.902.268 23.299-5.118l14.281 8.482c1.259 1.052 2.992 1.341 4.746.97 1.755-.372 3.571-1.383 4.974-2.993 2.848-3.178 3.095-7.47.557-9.575Zm-66.223-4.685c-10.071-8.316-4.355-21.978 6.934-34.69 5.634-6.356 12.32-10.917 19.336-12.362 7.017-1.444 9.638-3.219 14.673.929 10.05 8.317 9.06 25.404-2.229 38.116-11.288 12.733-28.643 16.324-38.714 8.007Z"
        fill="#96AEBB" />
    <path
        d="M366.699 178.395c-1.383 0-2.642-.413-3.632-1.218l-13.93-8.275c-4.478 3.591-10.319 3.921-15.952 4.251-2.601.145-5.057.289-7.285.743-9.927 2.043-19.048.165-25.672-5.304-5.51-4.54-8.75-11.102-9.349-18.924-.846-11.04 3.612-22.968 12.258-32.709 15.251-17.17 38.756-21.978 52.397-10.731 6.088 5.035 10.917 13.228 12.898 21.937 2.188 9.617.826 18.965-3.88 26.353l9.452 10.277c1.114.929 1.754 2.25 1.878 3.839.165 2.187-.702 4.54-2.415 6.459-1.444 1.63-3.322 2.745-5.262 3.157a9.25 9.25 0 0 1-1.506.145Zm-17.604-10.649c.083 0 .186.021.269.083l14.28 8.482c.021.02.042.02.062.041 1.094.908 2.642 1.217 4.313.867 1.734-.351 3.405-1.362 4.706-2.828 1.527-1.713 2.311-3.797 2.166-5.695-.103-1.301-.639-2.394-1.547-3.137l-.042-.041-9.74-10.587a.527.527 0 0 1-.062-.64c10.05-15.354 3.549-37.229-8.585-47.258-13.228-10.917-36.094-6.15-50.973 10.607-8.461 9.534-12.836 21.174-12.01 31.946.577 7.553 3.694 13.847 8.977 18.222 6.376 5.263 15.188 7.058 24.805 5.077 2.291-.475 4.788-.619 7.429-.764 5.593-.33 11.371-.66 15.643-4.23a.398.398 0 0 1 .309-.145Zm-28.396-2.29c-5.076 0-9.843-1.486-13.599-4.582-3.24-2.683-5.056-6.026-5.345-9.967-.681-8.874 6.273-18.738 12.237-25.445 6.026-6.79 12.816-11.124 19.605-12.527a68.306 68.306 0 0 0 3.302-.764c4.643-1.114 7.45-1.795 11.804 1.796 4.148 3.426 6.583 8.358 7.058 14.281.64 8.316-2.724 17.272-9.225 24.599-7.264 8.151-17.045 12.609-25.837 12.609Zm-12.939-5.387c9.844 8.131 26.89 4.582 37.992-7.924 6.315-7.12 9.576-15.787 8.957-23.836-.434-5.613-2.745-10.297-6.687-13.558-3.941-3.261-6.273-2.703-10.917-1.589-.99.227-2.104.516-3.343.764-6.583 1.362-13.166 5.572-19.047 12.196-5.82 6.562-12.63 16.179-11.97 24.682.31 3.652 2.002 6.768 5.015 9.265Z"
        fill="#000" />
    <path
        d="m373.655 165.146-9.741-10.587c1.61-2.455 2.786-5.056 3.612-7.718-1.486-.681-2.869-.743-4.107-.041-10.834 6.088-9.596-7.532-9.596-7.532-1.465 4.56-4.045 9.121-7.677 13.207-11.288 12.712-28.665 16.303-38.715 7.987-1.362-1.135-2.435-2.353-3.24-3.653l8.234 13.207.929 3.777c3.962.619 8.193.475 12.444-.413 7.182-1.486 16.902.268 23.299-5.118l14.281 8.482c1.258 1.052 2.992 1.341 4.746.97 1.754-.372 3.57-1.383 4.974-2.992 2.847-3.179 3.095-7.471.557-9.576Z"
        fill="#000" />
    <path
        d="M366.702 178.395c-1.382 0-2.641-.413-3.632-1.218l-13.929-8.275c-4.479 3.59-10.319 3.921-15.953 4.251-2.6.144-5.056.289-7.284.743-4.375.908-8.627 1.032-12.63.413a.508.508 0 0 1-.413-.393l-.908-3.714-8.151-13.043a.154.154 0 0 1-.042-.082c-.144-.248-.082-.557.165-.702.248-.144.558-.082.702.165l.041.083c.785 1.259 1.837 2.414 3.096 3.467 9.844 8.131 26.89 4.581 37.992-7.925 3.467-3.9 6.088-8.399 7.574-13.022a.53.53 0 0 1 .598-.35.537.537 0 0 1 .413.557c0 .062-.516 6.17 2.332 8.007 1.465.949 3.653.619 6.501-.97 1.341-.764 2.889-.743 4.581.021a.507.507 0 0 1 .268.619 31.401 31.401 0 0 1-3.446 7.511l9.452 10.278c1.114.928 1.754 2.249 1.877 3.838.166 2.188-.701 4.54-2.414 6.459-1.445 1.631-3.323 2.745-5.262 3.158-.516.062-1.032.124-1.528.124Zm-17.603-10.649c.083 0 .186.021.269.083l14.28 8.481c.021.021.041.021.062.042 1.094.908 2.642 1.217 4.313.866 1.734-.351 3.405-1.362 4.705-2.827 1.528-1.713 2.312-3.797 2.167-5.696-.103-1.3-.639-2.394-1.548-3.136a2.769 2.769 0 0 0-.041-.042l-9.74-10.586a.527.527 0 0 1-.062-.64 29.699 29.699 0 0 0 3.405-7.161c-1.218-.454-2.27-.433-3.22.103-3.198 1.795-5.737 2.126-7.553.949-1.96-1.258-2.6-3.983-2.786-6.108-1.589 3.818-3.921 7.491-6.81 10.752-7.264 8.192-17.046 12.629-25.837 12.629-4.891 0-9.472-1.362-13.145-4.23l5.303 8.523c.021.041.041.103.062.144l.846 3.447c3.797.557 7.801.392 11.928-.454 2.291-.475 4.788-.62 7.429-.764 5.593-.33 11.371-.66 15.643-4.231a.472.472 0 0 1 .33-.144Z"
        fill="#000" />
    <path
        d="M299.588 156.809c-4.313 2.641-7.14-3.364-7.986-5.531.866 6.707 3.838 12.671 8.997 16.922 3.096 2.559 6.728 4.272 10.669 5.201l3.612-1.899c-.041-.02-10.071-17.892-15.292-14.693Z"
        fill="#000" />
    <path
        d="M311.227 173.896c-.041 0-.083 0-.124-.02-4.127-.95-7.78-2.745-10.875-5.304-5.077-4.189-8.255-10.153-9.163-17.252-.041-.269.124-.496.392-.558a.496.496 0 0 1 .598.31c.578 1.465 2.167 4.932 4.479 5.716.887.31 1.795.165 2.765-.433.764-.475 1.672-.578 2.641-.33 5.572 1.444 13.022 14.631 13.332 15.188a.525.525 0 0 1-.207.702l-3.611 1.899a.309.309 0 0 1-.227.082Zm-18.449-19.13c1.362 5.262 4.127 9.72 8.131 13.042 2.93 2.415 6.376 4.107 10.256 5.036l2.972-1.548c-1.383-2.353-7.842-13.042-12.424-14.239-.722-.186-1.32-.124-1.857.206-1.217.743-2.456.929-3.632.537-1.424-.496-2.58-1.713-3.446-3.034Z"
        fill="#000" />
    <path
        d="m381.788 171.688-16.695-13.786c10.462-15.993 10.132-34.938-1.734-44.74-13.435-11.082-36.61-6.315-51.695 10.669-15.065 16.964-16.406 39.808-2.972 50.89 6.707 5.552 15.87 7.12 25.239 5.201 7.182-1.486 14.466-5.036 20.884-10.422l16.696 13.786c1.258 1.052 2.992 1.341 4.746.97 1.754-.372 3.57-1.383 4.973-2.993 2.828-3.178 3.075-7.47.558-9.575Zm-66.244-4.685c-10.071-8.316-9.06-25.404 2.228-38.116 5.634-6.356 12.816-10.421 19.812-11.866 7.016-1.445 13.868-.268 18.903 3.88 10.05 8.316 9.06 25.404-2.229 38.116-11.288 12.712-28.644 16.303-38.714 7.986Z"
        fill="#BDCCD9" />
    <path
        d="M374.812 184.936c-1.403 0-2.662-.433-3.653-1.238l-16.365-13.517c-6.294 5.201-13.455 8.75-20.781 10.257-9.926 2.043-19.048.165-25.672-5.304-5.51-4.54-8.75-11.103-9.349-18.924-.846-11.041 3.612-22.969 12.259-32.709 15.25-17.17 38.756-21.978 52.396-10.731 11.784 9.72 12.63 28.602 2.085 45.029l16.344 13.496c1.135.929 1.795 2.271 1.919 3.86.165 2.187-.701 4.54-2.414 6.459-1.445 1.63-3.323 2.745-5.263 3.157a7.491 7.491 0 0 1-1.506.165Zm-20.018-15.952c.124 0 .227.041.33.124l16.696 13.785c1.093.908 2.641 1.218 4.313.867 1.733-.351 3.405-1.362 4.705-2.827 1.527-1.713 2.311-3.797 2.167-5.696-.104-1.3-.64-2.394-1.548-3.137l-16.695-13.785a.51.51 0 0 1-.103-.681c10.524-16.055 9.823-34.587-1.631-44.06-13.228-10.916-36.093-6.149-50.972 10.608-8.462 9.534-12.837 21.173-12.011 31.945.578 7.554 3.694 13.848 8.977 18.223 6.377 5.262 15.189 7.057 24.805 5.076 7.285-1.506 14.425-5.076 20.658-10.318a.416.416 0 0 1 .309-.124Zm-25.981 3.013c-5.077 0-9.844-1.486-13.6-4.581-4.148-3.426-6.583-8.358-7.058-14.26-.64-8.317 2.724-17.273 9.225-24.599 5.53-6.233 12.671-10.504 20.1-12.031 7.47-1.548 14.343-.124 19.337 4.003 4.148 3.426 6.583 8.358 7.057 14.281.64 8.316-2.724 17.273-9.224 24.599-7.264 8.131-17.046 12.588-25.837 12.588Zm-12.94-5.386c9.844 8.131 26.89 4.581 37.993-7.925 6.314-7.119 9.575-15.787 8.956-23.814-.433-5.614-2.745-10.298-6.686-13.559-4.747-3.921-11.309-5.262-18.47-3.776-7.203 1.486-14.157 5.654-19.543 11.721-6.315 7.12-9.576 15.808-8.957 23.836.475 5.572 2.786 10.277 6.707 13.517Z"
        fill="#000" />
    <path
        d="M382.587 296.89c-2.085-.743-4.52-.825-7.141-.124l-40.2 10.773c-7.491 2.001-13.558 9.699-13.558 17.19v40.2c0 2.952.949 5.428 2.538 7.223 1.609 1.796 8.936 7.079 10.958 8.111 2.291 1.176 5.18 1.465 8.317.619l40.2-10.773c7.491-2.001 13.558-9.699 13.558-17.19v-40.201c0-3.219-1.135-5.881-3.013-7.697-1.547-1.507-9.08-7.223-11.659-8.131Z"
        fill="#6556FF" />
    <path
        d="M339.975 381.79c-1.795 0-3.467-.392-4.973-1.156-2.002-1.032-9.431-6.335-11.082-8.192-1.734-1.94-2.662-4.541-2.662-7.512v-40.201c0-7.656 6.211-15.539 13.868-17.582l40.2-10.773c2.621-.701 5.159-.66 7.388.124 2.704.95 10.36 6.79 11.825 8.234 2.022 1.961 3.137 4.809 3.137 8.007v40.201c0 7.656-6.212 15.539-13.868 17.582l-40.201 10.773c-1.238.33-2.455.495-3.632.495Zm38.983-85.085c-1.094 0-2.249.165-3.405.474l-40.2 10.773c-7.306 1.96-13.249 9.493-13.249 16.798v40.2c0 2.766.846 5.16 2.435 6.955 1.568 1.754 8.936 7.037 10.834 8.007 2.312 1.176 5.077 1.383 8.028.599l40.2-10.773c7.306-1.96 13.249-9.493 13.249-16.798v-40.201c0-3.013-.99-5.592-2.889-7.408-1.61-1.569-9.08-7.182-11.536-8.049-1.073-.392-2.249-.577-3.467-.577Z"
        fill="#000" />
    <path
        d="M329.942 348.813s0 3.467-4.272 3.384c-3.528-.062-3.941-4.623-3.982-6.212v18.966c0 2.951.949 5.427 2.538 7.222 1.589 1.796 8.936 7.079 10.958 8.111 2.291 1.176 5.18 1.465 8.317.619l6.252-1.672-19.811-30.418Z"
        fill="#000" />
    <path
        d="M339.973 381.893c-1.795 0-3.508-.392-5.015-1.156-2.001-1.032-9.451-6.356-11.123-8.234-1.754-1.96-2.683-4.581-2.683-7.573v-18.966a.51.51 0 0 1 .516-.516.494.494 0 0 1 .516.496c.041 1.692.475 5.654 3.488 5.695 1.259.021 2.249-.288 2.889-.907.846-.826.867-1.94.867-1.961 0-.227.144-.433.371-.495a.518.518 0 0 1 .578.206l19.811 30.398c.083.144.103.31.042.475a.529.529 0 0 1-.351.309l-6.253 1.672a12.1 12.1 0 0 1-3.653.557Zm-17.768-31.43v14.446c0 2.724.825 5.118 2.414 6.893 1.569 1.754 8.915 7.016 10.814 7.986 2.291 1.156 5.035 1.362 7.945.578l5.572-1.486-18.759-28.788a3.955 3.955 0 0 1-.887 1.362c-.846.825-2.084 1.238-3.632 1.217-1.754-.02-2.827-.99-3.467-2.208Z"
        fill="#000" />
    <path
        d="m383.704 302.792-40.2 10.773c-7.491 2.002-13.559 9.699-13.559 17.19v40.201c0 7.491 6.068 11.928 13.559 9.926l40.2-10.772c7.491-2.002 13.558-9.7 13.558-17.191v-40.2c0-7.471-6.067-11.928-13.558-9.927Z"
        fill="#6556FF" />
    <path
        d="M339.972 381.79c-2.435 0-4.664-.702-6.459-2.105-2.559-1.96-3.962-5.056-3.962-8.729v-40.201c0-7.656 6.211-15.539 13.868-17.582l40.2-10.773c3.839-1.031 7.429-.454 10.112 1.589 2.559 1.961 3.962 5.056 3.962 8.73v40.2c0 7.656-6.211 15.54-13.868 17.583l-40.2 10.772a13.668 13.668 0 0 1-3.653.516Zm43.833-78.585-40.201 10.773c-7.305 1.96-13.248 9.492-13.248 16.798v40.2c0 3.405 1.3 6.274 3.652 8.069 2.477 1.899 5.82 2.415 9.39 1.466l40.2-10.773c7.306-1.96 13.249-9.493 13.249-16.798v-40.201c0-3.405-1.3-6.273-3.652-8.069-2.456-1.919-5.799-2.435-9.39-1.465Z"
        fill="#000" />
    <path
        d="M343.258 335.089v6.191c0 1.053.268 1.259 1.321.97 4.127-1.094 8.234-2.208 12.361-3.302.083-.02.144-.041.227-.062.433-.124.805-.33.991-.805.206-.495.041-.825-.269-1.073-1.093-.825-2.187-1.651-3.322-2.435-.392-.268-.434-.474 0-.99 5.345-6.46 13.29-8.895 18.965-5.717 1.878 1.053 3.322 2.559 4.23 4.623.351.805.537.867 1.486.619 1.693-.454 3.405-.908 5.098-1.362 1.135-.31 1.506-.887 1.197-1.878-2.002-6.253-6.212-10.071-12.754-10.958-8.007-1.073-15.519 2.146-22.329 9.328-.413.433-.825.908-1.197 1.382-.392.516-.66.619-1.052.289-.95-.763-1.961-1.444-2.951-2.167-.145-.103-.289-.227-.454-.309-.661-.31-1.424.247-1.507 1.073-.021.227-.021.454-.021.681-.02 1.96-.02 3.942-.02 5.902Z"
        fill="#fff" />
    <path
        d="M343.897 342.766c-.227 0-.454-.042-.639-.186-.372-.289-.413-.805-.434-1.321v-12.175c0-.207 0-.413.021-.62.062-.577.371-1.073.825-1.341a1.358 1.358 0 0 1 1.259-.062c.186.083.33.186.454.289l.062.041c.268.186.537.392.805.578a54.188 54.188 0 0 1 2.167 1.61c.124.103.165.103.165.103s.082-.021.309-.309c.393-.537.847-1.032 1.218-1.424 6.975-7.347 14.59-10.546 22.68-9.452 6.604.887 10.999 4.664 13.104 11.247.186.578.165 1.052-.041 1.445-.227.433-.702.742-1.424.928-1.713.475-3.446.929-5.097 1.362-1.073.289-1.507.207-1.981-.846-.826-1.898-2.188-3.384-4.066-4.416-5.469-3.054-13.228-.681-18.429 5.634a1.275 1.275 0 0 0-.206.289c.021.02.062.041.124.103.908.64 1.816 1.3 2.683 1.94l.66.495c.516.371.66.929.413 1.548-.207.536-.619.887-1.259 1.052l-.103.021c-.042.02-.083.02-.124.041l-3.096.826c-3.095.825-6.191 1.65-9.265 2.476a2.72 2.72 0 0 1-.785.124Zm.496-15.003a.67.67 0 0 0-.289.082c-.227.124-.392.413-.434.702-.02.165-.02.351-.02.537v12.175c0 .578.082.661.103.661.021 0 .124.082.702-.083a5654.35 5654.35 0 0 0 9.265-2.476l3.096-.826c.041 0 .082-.02.103-.041l.124-.041c.392-.104.598-.269.702-.558.123-.309.041-.454-.145-.577l-.66-.496c-.867-.639-1.754-1.3-2.662-1.939-.207-.145-.434-.331-.475-.661-.041-.351.165-.66.392-.929 5.469-6.603 13.662-9.059 19.481-5.819 2.023 1.135 3.508 2.745 4.416 4.808.248.578.248.578 1.012.372 1.63-.434 3.384-.908 5.097-1.362.495-.124.805-.31.929-.537.103-.186.103-.454-.021-.805-1.981-6.253-6.17-9.843-12.423-10.669-7.801-1.052-15.189 2.064-21.979 9.204-.371.392-.784.846-1.155 1.342-.207.288-.475.598-.867.639-.268.042-.516-.062-.784-.268a139.606 139.606 0 0 0-2.126-1.589c-.268-.186-.536-.392-.805-.578l-.082-.062c-.103-.082-.206-.165-.31-.206h-.185Z"
        fill="#000" />
    <path
        d="M385.874 347.554v-6.13c0-1.031-.269-1.238-1.28-.97-4.148 1.094-8.275 2.209-12.423 3.323-.496.124-.97.289-1.197.887-.227.62.103.908.454 1.177 1.073.784 2.125 1.568 3.198 2.332.372.268.331.474-.02.908-5.345 6.48-13.352 8.935-19.007 5.737-1.878-1.053-3.322-2.559-4.23-4.623-.33-.764-.516-.846-1.445-.598a476.92 476.92 0 0 0-5.2 1.403c-1.053.289-1.424.887-1.115 1.816 2.766 8.09 8.668 11.907 17.789 11.041 6.418-.599 12.217-3.901 17.273-9.37.475-.515.929-1.052 1.362-1.589.31-.392.516-.412.805-.206 1.011.764 2.043 1.507 3.075 2.249.144.104.289.228.475.289.66.289 1.382-.227 1.465-1.052.062-.516.02-1.032.041-1.548-.021-1.651-.02-3.364-.02-5.076Z"
        fill="#fff" />
    <path
        d="M358.942 364.414c-7.842 0-13.125-3.839-15.725-11.454-.186-.536-.165-1.011.041-1.424.227-.433.681-.742 1.362-.928 1.755-.475 3.509-.949 5.222-1.403 1.031-.269 1.485-.186 1.939.825.826 1.899 2.188 3.384 4.045 4.437 5.469 3.075 13.249.702 18.47-5.655.124-.144.165-.227.186-.268-.021-.02-.041-.041-.083-.062-.743-.516-1.486-1.073-2.187-1.589-.33-.247-.681-.495-1.011-.743-.31-.227-.95-.701-.599-1.651.31-.825 1.011-1.031 1.486-1.155l4.416-1.177c2.662-.722 5.325-1.424 8.007-2.146.496-.124 1.012-.227 1.383.062.371.289.413.784.413 1.3v11.639c0 .392 0 .805-.042 1.239-.061.557-.35 1.031-.804 1.3a1.387 1.387 0 0 1-1.239.082c-.185-.082-.35-.206-.474-.289l-.681-.495c-.805-.598-1.651-1.197-2.456-1.816a.286.286 0 0 1-.062-.041c-.021.02-.082.062-.165.165a25.346 25.346 0 0 1-1.383 1.609c-5.283 5.696-11.185 8.895-17.541 9.493-.887.104-1.713.145-2.518.145Zm-8.358-14.508c-.123 0-.288.041-.557.124-1.692.454-3.446.908-5.2 1.403-.454.124-.722.289-.846.516-.103.186-.103.434.02.764 2.724 7.966 8.565 11.598 17.356 10.772 6.15-.578 11.866-3.673 17.005-9.224.454-.496.908-1.032 1.341-1.569.433-.536.887-.64 1.383-.268.804.598 1.651 1.217 2.455 1.795l.681.496c.104.082.227.165.331.206a.493.493 0 0 0 .495-.041c.227-.124.371-.372.392-.681.041-.372.041-.743.041-1.135v-11.66c0-.557-.082-.64-.103-.64 0 0-.124-.082-.66.083-2.662.701-5.325 1.424-8.007 2.146l-4.417 1.176c-.454.124-.763.227-.928.64-.124.33-.042.454.309.702.351.247.681.495 1.011.742.702.516 1.445 1.074 2.188 1.569.103.062.392.268.433.619.042.33-.144.64-.371.908-5.489 6.666-13.703 9.121-19.523 5.84-2.022-1.135-3.508-2.765-4.395-4.808-.165-.33-.227-.475-.434-.475Z"
        fill="#000" />
    <path
        d="M54.78 409.403a.593.593 0 0 1-.186-.041l-18.511-9.142c-.145-.062-.227-.206-.227-.372v-5.737c0-.103.04-.206.123-.288l18.511-19.069a.41.41 0 0 1 .29-.124c.061 0 .103 0 .164.021.166.062.248.206.248.392v9.08a.407.407 0 0 1-.124.289l-10.462 10.38 10.338 4.664a.409.409 0 0 1 .248.372v9.142a.461.461 0 0 1-.186.351.343.343 0 0 1-.227.082Z"
        fill="#6556FF" />
    <path
        d="M54.778 375.043v9.08l-10.896 10.814 10.896 4.911v9.142l-18.511-9.142v-5.737l18.511-19.068Zm0-.826a.827.827 0 0 0-.598.248l-18.512 19.068a.812.812 0 0 0-.227.578v5.737c0 .31.186.599.454.743l18.512 9.142a.809.809 0 0 0 .371.083c.145 0 .31-.042.433-.124a.806.806 0 0 0 .392-.702v-9.142a.784.784 0 0 0-.495-.743l-9.802-4.416 10.05-9.968a.813.813 0 0 0 .247-.577v-9.081a.83.83 0 0 0-.515-.763.582.582 0 0 0-.31-.083Z"
        fill="#000" />
    <path
        d="M59.731 415.12a.431.431 0 0 1-.33-.165.406.406 0 0 1-.042-.454l29.759-56.855c.062-.103.144-.185.268-.206l7.883-2.105c.041 0 .062-.021.103-.021.124 0 .248.062.33.166a.406.406 0 0 1 .042.454l-29.82 56.874c-.062.104-.145.186-.269.207l-7.82 2.105h-.104Z"
        fill="#6556FF" />
    <path
        d="M98.031 355.231a.801.801 0 0 0-.64-.309c-.061 0-.144 0-.206.021l-7.883 2.104a.803.803 0 0 0-.516.413l-29.779 56.875a.855.855 0 0 0 .083.908c.165.206.392.31.64.31.061 0 .144 0 .206-.021l7.821-2.105a.8.8 0 0 0 .516-.413l29.82-56.875c.165-.309.145-.66-.062-.908Zm-30.48 57.391-7.822 2.105 29.759-56.854 7.883-2.105-29.82 56.854Z"
        fill="#000" />
    <path
        d="M101.996 396.752c-.062 0-.103 0-.165-.02-.165-.062-.248-.207-.248-.392v-9.081c0-.103.041-.206.124-.289l10.463-10.38-10.36-4.726a.408.408 0 0 1-.248-.371v-9.08c0-.145.083-.269.186-.351a.42.42 0 0 1 .227-.062c.062 0 .124.021.186.041l18.511 9.142c.145.062.227.207.227.372v5.737a.407.407 0 0 1-.124.289l-18.511 19.068a.392.392 0 0 1-.268.103Z"
        fill="#6556FF" />
    <path
        d="m120.858 370.812-18.512-9.142a.804.804 0 0 0-.371-.083.815.815 0 0 0-.433.124.805.805 0 0 0-.392.702v9.08c0 .33.185.619.474.743l9.803 4.478-10.05 9.968a.81.81 0 0 0-.248.578v9.08a.83.83 0 0 0 .825.825.827.827 0 0 0 .599-.247l18.511-19.069a.812.812 0 0 0 .227-.578v-5.737a.696.696 0 0 0-.433-.722Zm-.351 6.459-18.511 19.069v-9.08l10.896-10.814-10.896-4.974v-9.08l18.511 9.142v5.737Z"
        fill="#000" />
    <path
        d="M245.376 167.416a1.28 1.28 0 0 1-.475-.083c-2.93-1.031-5.304-2.27-7.202-3.797-1.527-1.197-2.497-2.456-3.054-3.9-1.115-2.869.227-6.79 3.116-9.163.846-.681 1.774-1.156 2.93-1.465a6.28 6.28 0 0 1 1.341-.165c1.321 0 2.477.495 3.426 1.444l.062.062a9.278 9.278 0 0 1 1.548-1.96c1.486-1.403 3.281-2.208 4.973-2.208 1.404 0 2.642.557 3.509 1.568 1.485 1.734 1.754 3.962.825 6.604-.495 1.424-1.321 2.889-2.538 4.581-1.899 2.621-4.251 5.18-7.43 8.007-.35.33-.681.475-1.031.475Z"
        fill="#FF6464" />
    <path
        d="M252.042 146.594c1.238 0 2.373.474 3.199 1.423 1.382 1.631 1.63 3.694.743 6.212-.557 1.589-1.465 3.054-2.477 4.478-2.146 2.951-4.664 5.531-7.367 7.945-.268.248-.516.351-.764.351a.918.918 0 0 1-.33-.062c-2.579-.908-4.994-2.063-7.078-3.735-1.259-.99-2.311-2.146-2.931-3.735-1.031-2.662.248-6.459 2.993-8.688.805-.661 1.671-1.094 2.786-1.383a5.32 5.32 0 0 1 1.238-.144c1.197 0 2.27.454 3.137 1.32.062.062.124.145.206.227.083.104.145.166.206.166.062 0 .124-.083.227-.269.434-.743.929-1.424 1.569-2.022 1.424-1.362 3.116-2.084 4.643-2.084Zm0-.826c-1.795 0-3.715.846-5.262 2.332a8.678 8.678 0 0 0-1.342 1.63 5.064 5.064 0 0 0-3.405-1.279c-.454 0-.949.062-1.424.165h-.041c-1.217.33-2.187.825-3.075 1.548-3.033 2.455-4.416 6.603-3.24 9.616.599 1.528 1.61 2.828 3.178 4.087 1.94 1.547 4.334 2.806 7.326 3.859.207.082.413.103.619.103.454 0 .888-.186 1.321-.578 3.199-2.869 5.572-5.428 7.491-8.09 1.259-1.733 2.085-3.219 2.601-4.684.99-2.786.681-5.159-.888-7.017-.97-1.073-2.332-1.692-3.859-1.692Z"
        fill="#000" />
    <path
        d="M408.322 294.373c-.124 0-.269-.021-.413-.083-2.332-.825-4.189-1.816-5.696-3.013-1.217-.969-1.981-1.96-2.435-3.116-.887-2.29.165-5.448 2.476-7.326.681-.557 1.424-.928 2.353-1.176a5.05 5.05 0 0 1 1.094-.124c1.032 0 1.981.392 2.744 1.135a7.625 7.625 0 0 1 1.177-1.465c1.176-1.114 2.641-1.775 3.983-1.775 1.135 0 2.146.454 2.827 1.259 1.197 1.403 1.403 3.178.66 5.304-.392 1.135-1.032 2.29-2.022 3.632-1.507 2.084-3.364 4.086-5.882 6.335-.268.268-.557.413-.866.413Z"
        fill="#FF6464" />
    <path
        d="M413.607 277.843c.991 0 1.878.372 2.518 1.114 1.094 1.28 1.28 2.91.599 4.891-.454 1.259-1.156 2.415-1.961 3.529-1.692 2.332-3.694 4.355-5.82 6.274-.206.186-.412.289-.598.289-.083 0-.165-.021-.268-.042-2.043-.722-3.942-1.63-5.593-2.93-.99-.784-1.837-1.692-2.311-2.951-.826-2.105.206-5.097 2.352-6.851a5.606 5.606 0 0 1 2.188-1.094c.33-.083.66-.124.97-.124.949 0 1.795.351 2.476 1.052.062.062.103.124.165.186.062.083.124.124.165.124.042 0 .104-.062.186-.206a7.005 7.005 0 0 1 1.238-1.589c1.135-1.115 2.477-1.672 3.694-1.672Zm0-.825c-1.485 0-2.992.66-4.271 1.878-.351.33-.681.722-.991 1.155a4.265 4.265 0 0 0-2.662-.928c-.372 0-.764.041-1.176.144h-.042c-.99.268-1.774.66-2.497 1.259-2.455 1.981-3.57 5.345-2.6 7.801.475 1.238 1.3 2.29 2.559 3.301 1.548 1.239 3.446 2.229 5.82 3.075.185.062.371.103.536.103.413 0 .784-.165 1.156-.495 2.538-2.27 4.416-4.313 5.923-6.397.99-1.383 1.65-2.559 2.063-3.735.805-2.27.557-4.19-.743-5.696-.701-.95-1.836-1.465-3.075-1.465Z"
        fill="#000" />
    <path
        d="M294.329 343.934c1.719-1.965 1.895-4.622.394-5.935-1.501-1.313-4.111-.786-5.83 1.178-1.718 1.965-1.895 4.622-.394 5.935 1.501 1.313 4.111.786 5.83-1.178Z"
        fill="#6556FF" />
    <path
        d="M290.526 346.233c-.805 0-1.548-.227-2.147-.701-.846-.661-1.32-1.672-1.32-2.889 0-2.456 1.981-4.974 4.436-5.634 1.259-.33 2.436-.145 3.323.536.846.661 1.321 1.672 1.321 2.889 0 2.456-1.981 4.974-4.437 5.634a4.627 4.627 0 0 1-1.176.165Zm2.146-8.543c-.31 0-.64.041-.97.124-2.105.557-3.818 2.724-3.818 4.829 0 .949.351 1.733.991 2.228.681.516 1.609.661 2.62.392 2.105-.557 3.818-2.724 3.818-4.829 0-.949-.351-1.733-.99-2.228-.454-.351-1.011-.516-1.651-.516Z"
        fill="#000" />
    <path
        d="M430.135 270.291c-2.043 0-3.467-1.465-3.467-3.591 0-2.455 1.981-4.973 4.437-5.634a4.627 4.627 0 0 1 1.176-.165c2.043 0 3.467 1.466 3.467 3.591 0 2.456-1.981 4.974-4.437 5.634a4.03 4.03 0 0 1-1.176.165Z"
        fill="#FF6464" />
    <path
        d="M432.26 261.334c1.754 0 3.055 1.259 3.055 3.178 0 2.27-1.858 4.623-4.128 5.242a3.948 3.948 0 0 1-1.073.145c-1.754 0-3.054-1.259-3.054-3.179 0-2.27 1.857-4.622 4.127-5.241.372-.083.743-.145 1.073-.145Zm0-.825a5.59 5.59 0 0 0-1.279.165c-2.662.722-4.747 3.364-4.747 6.026 0 2.311 1.631 4.003 3.88 4.003.413 0 .846-.062 1.28-.165 2.662-.722 4.746-3.364 4.746-6.026 0-2.311-1.63-4.003-3.88-4.003Z"
        fill="#000" />
    <path
        d="M27.458 323.605c1.719-1.965 1.895-4.622.394-5.935-1.501-1.314-4.111-.786-5.83 1.178-1.719 1.964-1.895 4.622-.394 5.935 1.501 1.313 4.111.786 5.83-1.178Z"
        fill="#BDCCD9" />
    <path
        d="M23.654 325.906c-.804 0-1.547-.227-2.146-.701-.846-.661-1.32-1.672-1.32-2.89 0-2.455 1.98-4.973 4.436-5.633 1.26-.331 2.436-.145 3.323.536.846.661 1.32 1.672 1.32 2.889 0 2.456-1.98 4.974-4.436 5.634a4.76 4.76 0 0 1-1.177.165Zm2.147-8.564c-.31 0-.64.041-.97.124-2.105.557-3.818 2.724-3.818 4.829 0 .949.35 1.733.99 2.229.681.516 1.61.66 2.621.392 2.105-.558 3.818-2.724 3.818-4.829 0-.95-.35-1.734-.99-2.229a2.759 2.759 0 0 0-1.651-.516Z"
        fill="#000" />
    <path d="m209.115 100.862 55.018-22.638-70.516 10.339 15.498 12.299Z" fill="#fff" />
    <path
        d="M209.118 101.275c-.083 0-.186-.02-.248-.082l-15.498-12.3a.426.426 0 0 1-.144-.433c.041-.165.185-.268.33-.31l70.516-10.339c.206-.02.412.103.454.29.041.185-.042.412-.248.495l-55.018 22.638c-.02.021-.082.041-.144.041Zm-14.487-12.444 14.569 11.536 51.675-21.256-66.244 9.72Z"
        fill="#000" />
    <path d="m210.913 117.516-1.796-16.654 55.018-22.638-53.222 39.292Z" fill="#A2B5C8" />
    <path
        d="M210.914 117.929c-.062 0-.103-.021-.165-.041a.41.41 0 0 1-.248-.33l-1.795-16.675a.429.429 0 0 1 .247-.433l55.039-22.618a.41.41 0 0 1 .516.186.398.398 0 0 1-.124.536l-53.222 39.313a.558.558 0 0 1-.248.062Zm-1.341-16.819 1.671 15.643 49.962-36.899-51.633 21.256Z"
        fill="#000" />
    <path d="m216.938 106.64 17.644 14.838 29.552-43.254-47.196 28.416Z" fill="#fff" />
    <path
        d="M234.581 121.891a.435.435 0 0 1-.269-.103l-17.644-14.838a.375.375 0 0 1-.145-.351.445.445 0 0 1 .207-.33l47.196-28.417c.165-.103.372-.062.516.062a.433.433 0 0 1 .041.516l-29.552 43.276a.397.397 0 0 1-.288.185h-.062Zm-16.943-15.188 16.86 14.177 28.231-41.335-45.091 27.158Z"
        fill="#000" />
    <path d="m210.73 117.496 10.773-7.017-4.561-3.838-6.212 10.855Z" fill="#000" />
    <path
        d="M210.728 117.908a.494.494 0 0 1-.289-.103c-.144-.124-.165-.33-.082-.495l6.212-10.855a.423.423 0 0 1 .288-.206.445.445 0 0 1 .331.082l4.54 3.818c.103.082.144.206.144.351 0 .124-.082.247-.186.33l-10.751 7.016c-.042.042-.124.062-.207.062Zm6.336-10.628-5.118 8.936 8.853-5.778-3.735-3.158Zm-23.608 15.416a.436.436 0 0 1-.372-.227c-.103-.206-.041-.454.165-.557l10.958-5.861c.207-.103.454-.041.558.165.103.206.041.454-.166.557l-10.958 5.861c-.041.062-.123.062-.185.062Zm-5.657-14.569a.435.435 0 0 1-.371-.227c-.103-.207-.041-.454.165-.558l10.958-5.86c.207-.104.454-.042.557.165.104.206.042.454-.165.557l-10.958 5.861a.336.336 0 0 1-.186.062Z"
        fill="#000" />
</svg>